<svg width="174" height="25" viewBox="0 0 174 25" fill="none" xmlns="http://www.w3.org/2000/svg">
<path d="M9.49219 12.7207H3.52539V19H1.65039V4.78125H10.459V6.32422H3.52539V11.1875H9.49219V12.7207ZM17.2754 10.0547C17.002 10.0091 16.7057 9.98633 16.3867 9.98633C15.2018 9.98633 14.3978 10.4909 13.9746 11.5V19H12.168V8.43359H13.9258L13.9551 9.6543C14.5475 8.71029 15.3874 8.23828 16.4746 8.23828C16.8262 8.23828 17.0931 8.28385 17.2754 8.375V10.0547ZM23.1348 19.1953C21.7025 19.1953 20.5371 18.7266 19.6387 17.7891C18.7402 16.8451 18.291 15.5853 18.291 14.0098V13.6777C18.291 12.6296 18.4896 11.6953 18.8867 10.875C19.2904 10.0482 19.8503 9.40365 20.5664 8.94141C21.2891 8.47266 22.0703 8.23828 22.9102 8.23828C24.2839 8.23828 25.3516 8.69076 26.1133 9.5957C26.875 10.5007 27.2559 11.7962 27.2559 13.4824V14.2344H20.0977C20.1237 15.276 20.4264 16.1191 21.0059 16.7637C21.5918 17.4017 22.334 17.7207 23.2324 17.7207C23.8704 17.7207 24.4108 17.5905 24.8535 17.3301C25.2962 17.0697 25.6836 16.7246 26.0156 16.2949L27.1191 17.1543C26.2337 18.515 24.9056 19.1953 23.1348 19.1953ZM22.9102 9.72266C22.181 9.72266 21.569 9.98958 21.0742 10.5234C20.5794 11.0508 20.2734 11.793 20.1562 12.75H25.4492V12.6133C25.3971 11.6953 25.1497 10.9857 24.707 10.4844C24.2643 9.97656 23.6654 9.72266 22.9102 9.72266ZM28.916 13.6289C28.916 12.0078 29.3001 10.7057 30.0684 9.72266C30.8366 8.73307 31.8424 8.23828 33.0859 8.23828C34.3229 8.23828 35.3027 8.66146 36.0254 9.50781V4H37.832V19H36.1719L36.084 17.8672C35.3613 18.7526 34.3555 19.1953 33.0664 19.1953C31.8424 19.1953 30.8431 18.694 30.0684 17.6914C29.3001 16.6888 28.916 15.3802 28.916 13.7656V13.6289ZM30.7227 13.834C30.7227 15.0319 30.9701 15.9694 31.4648 16.6465C31.9596 17.3236 32.6432 17.6621 33.5156 17.6621C34.6615 17.6621 35.498 17.1478 36.0254 16.1191V11.2656C35.485 10.2695 34.6549 9.77148 33.5352 9.77148C32.6497 9.77148 31.9596 10.1133 31.4648 10.7969C30.9701 11.4805 30.7227 12.4928 30.7227 13.834ZM40.2051 13.6289C40.2051 12.0078 40.5892 10.7057 41.3574 9.72266C42.1257 8.73307 43.1315 8.23828 44.375 8.23828C45.612 8.23828 46.5918 8.66146 47.3145 9.50781V4H49.1211V19H47.4609L47.373 17.8672C46.6504 18.7526 45.6445 19.1953 44.3555 19.1953C43.1315 19.1953 42.1322 18.694 41.3574 17.6914C40.5892 16.6888 40.2051 15.3802 40.2051 13.7656V13.6289ZM42.0117 13.834C42.0117 15.0319 42.2591 15.9694 42.7539 16.6465C43.2487 17.3236 43.9323 17.6621 44.8047 17.6621C45.9505 17.6621 46.7871 17.1478 47.3145 16.1191V11.2656C46.7741 10.2695 45.944 9.77148 44.8242 9.77148C43.9388 9.77148 43.2487 10.1133 42.7539 10.7969C42.2591 11.4805 42.0117 12.4928 42.0117 13.834ZM55.3906 16.3535L57.8516 8.43359H59.7852L55.5371 20.6309C54.8796 22.3887 53.8346 23.2676 52.4023 23.2676L52.0605 23.2383L51.3867 23.1113V21.6465L51.875 21.6855C52.487 21.6855 52.9622 21.5618 53.3008 21.3145C53.6458 21.0671 53.929 20.6146 54.1504 19.957L54.5508 18.8828L50.7812 8.43359H52.7539L55.3906 16.3535ZM71.8652 13.248H68.5254V19H66.6406V4.78125H71.3477C72.9492 4.78125 74.1797 5.14583 75.0391 5.875C75.9049 6.60417 76.3379 7.66536 76.3379 9.05859C76.3379 9.94401 76.097 10.7155 75.6152 11.373C75.14 12.0306 74.4759 12.5221 73.623 12.8477L76.9629 18.8828V19H74.9512L71.8652 13.248ZM68.5254 11.7148H71.4062C72.3372 11.7148 73.0762 11.474 73.623 10.9922C74.1764 10.5104 74.4531 9.86589 74.4531 9.05859C74.4531 8.17969 74.1895 7.50586 73.6621 7.03711C73.1413 6.56836 72.3861 6.33073 71.3965 6.32422H68.5254V11.7148ZM85.2148 17.9551C84.5117 18.7819 83.4798 19.1953 82.1191 19.1953C80.9928 19.1953 80.1335 18.8698 79.541 18.2188C78.9551 17.5612 78.6589 16.5911 78.6523 15.3086V8.43359H80.459V15.2598C80.459 16.8613 81.11 17.6621 82.4121 17.6621C83.7923 17.6621 84.7103 17.1478 85.166 16.1191V8.43359H86.9727V19H85.2539L85.2148 17.9551ZM91.6895 19H89.8828V8.43359H91.6895V19ZM89.7363 5.63086C89.7363 5.33789 89.8242 5.09049 90 4.88867C90.1823 4.68685 90.4492 4.58594 90.8008 4.58594C91.1523 4.58594 91.4193 4.68685 91.6016 4.88867C91.7839 5.09049 91.875 5.33789 91.875 5.63086C91.875 5.92383 91.7839 6.16797 91.6016 6.36328C91.4193 6.55859 91.1523 6.65625 90.8008 6.65625C90.4492 6.65625 90.1823 6.55859 90 6.36328C89.8242 6.16797 89.7363 5.92383 89.7363 5.63086ZM96.2891 17.5254H102.471V19H94.082V17.6719L99.9121 9.92773H94.1699V8.43359H102.178V9.71289L96.2891 17.5254ZM111.641 17.4668H118.379V19H109.756V4.78125H111.641V17.4668ZM119.756 13.6191C119.756 12.584 119.958 11.653 120.361 10.8262C120.771 9.99935 121.338 9.36133 122.061 8.91211C122.79 8.46289 123.62 8.23828 124.551 8.23828C125.99 8.23828 127.152 8.73633 128.037 9.73242C128.929 10.7285 129.375 12.0534 129.375 13.707V13.834C129.375 14.8626 129.176 15.7871 128.779 16.6074C128.389 17.4212 127.826 18.056 127.09 18.5117C126.361 18.9674 125.521 19.1953 124.57 19.1953C123.138 19.1953 121.976 18.6973 121.084 17.7012C120.199 16.7051 119.756 15.3867 119.756 13.7461V13.6191ZM121.572 13.834C121.572 15.0059 121.842 15.9466 122.383 16.6562C122.93 17.3659 123.659 17.7207 124.57 17.7207C125.488 17.7207 126.217 17.3626 126.758 16.6465C127.298 15.9238 127.568 14.9147 127.568 13.6191C127.568 12.4603 127.292 11.5228 126.738 10.8066C126.191 10.084 125.462 9.72266 124.551 9.72266C123.659 9.72266 122.939 10.0775 122.393 10.7871C121.846 11.4967 121.572 12.5124 121.572 13.834ZM140.566 13.834C140.566 15.4421 140.199 16.7376 139.463 17.7207C138.727 18.7038 137.731 19.1953 136.475 19.1953C135.192 19.1953 134.183 18.7884 133.447 17.9746V23.0625H131.641V8.43359H133.291L133.379 9.60547C134.115 8.69401 135.137 8.23828 136.445 8.23828C137.715 8.23828 138.717 8.7168 139.453 9.67383C140.195 10.6309 140.566 11.9622 140.566 13.668V13.834ZM138.76 13.6289C138.76 12.4375 138.506 11.4967 137.998 10.8066C137.49 10.1165 136.794 9.77148 135.908 9.77148C134.814 9.77148 133.994 10.2565 133.447 11.2266V16.2754C133.988 17.2389 134.814 17.7207 135.928 17.7207C136.794 17.7207 137.48 17.3789 137.988 16.6953C138.503 16.0052 138.76 14.9831 138.76 13.6289ZM147.256 19.1953C145.824 19.1953 144.658 18.7266 143.76 17.7891C142.861 16.8451 142.412 15.5853 142.412 14.0098V13.6777C142.412 12.6296 142.611 11.6953 143.008 10.875C143.411 10.0482 143.971 9.40365 144.688 8.94141C145.41 8.47266 146.191 8.23828 147.031 8.23828C148.405 8.23828 149.473 8.69076 150.234 9.5957C150.996 10.5007 151.377 11.7962 151.377 13.4824V14.2344H144.219C144.245 15.276 144.548 16.1191 145.127 16.7637C145.713 17.4017 146.455 17.7207 147.354 17.7207C147.992 17.7207 148.532 17.5905 148.975 17.3301C149.417 17.0697 149.805 16.7246 150.137 16.2949L151.24 17.1543C150.355 18.515 149.027 19.1953 147.256 19.1953ZM147.031 9.72266C146.302 9.72266 145.69 9.98958 145.195 10.5234C144.701 11.0508 144.395 11.793 144.277 12.75H149.57V12.6133C149.518 11.6953 149.271 10.9857 148.828 10.4844C148.385 9.97656 147.786 9.72266 147.031 9.72266ZM155.176 17.5254H161.357V19H152.969V17.6719L158.799 9.92773H153.057V8.43359H161.064V9.71289L155.176 17.5254Z" fill="black"/>
<line x1="173" y1="-4.37114e-08" x2="173" y2="25" stroke="black" stroke-width="2"/>
</svg>
